# xmcd
#
# Track frame offsets:
#	150
#	13399
#	26370
#	49724
#	65555
#	79087
#	93743
#	108385
#	123202
#	134691
#	148522
#
# Disc length: 2176 seconds
#
# Revision: 1
# Processed by: cddbd v1.5.1PL0 Copyright (c) Steve Scherf et al.
# Submitted via: audiograbber 1.83.01
#
DISCID=99087e0b
DTITLE=19th Street Red - Red Hot
DYEAR=2003
DGENRE=Blues
TTITLE0=Look on Yonder Wall
TTITLE1=I'm in the Mood
TTITLE2=Big Leg Woman
TTITLE3=Going Down Slow
TTITLE4=Highway 49
TTITLE5=Stop Breakin' Down
TTITLE6=I Believe
TTITLE7=Cairo
TTITLE8=Shakin' with Red
TTITLE9=Riding in the Moonlight
TTITLE10=Built for Comfort
EXTD=
EXTT0=
EXTT1=
EXTT2=
EXTT3=
EXTT4=
EXTT5=
EXTT6=
EXTT7=
EXTT8=
EXTT9=
EXTT10=
PLAYORDER=
